<svg xmlns="http://www.w3.org/2000/svg" width="40" height="32" fill="none" viewBox="0 0 40 32"><path fill="#E4E4E7" d="M40.001 0.661621H35.2065C35.2065 5.4759 33.3546 8.41637 28.2962 10.7454V0.661621H23.4732V12.5203C22.2856 12.881 20.9924 13.2328 19.587 13.5825C18.5313 13.8391 17.5123 14.1082 16.53 14.3897V0.661621H11.7025V16.0194C4.27545 18.9972 0 23.4266 0 31.3133H4.79448C4.79448 26.4991 6.6441 23.5586 11.7047 21.2295V31.3133H16.5256V19.4525C17.7132 19.0918 19.0064 18.7399 20.4139 18.388C21.4696 18.1314 22.4879 17.8624 23.4688 17.5809V31.3089H28.2919V15.9556C35.7255 12.9777 40.001 8.54833 40.001 0.661621Z"/></svg>